<svg width="1920" height="1080" viewBox="0 0 1920 1080" fill="none" xmlns="http://www.w3.org/2000/svg">
<g opacity="0.3">
<path d="M621.413 812.121C766.637 945.402 973.517 916.152 1121.34 760.186C1269.16 604.22 1239.52 360.197 1068.09 259.342C896.662 158.487 707.633 162.073 568.165 311.277C428.697 460.482 476.188 678.841 621.413 812.121Z" fill="#EFF3F0"/>
<path d="M1452.01 111.185C1530.37 154.229 1627.36 158.054 1684.81 86.958C1742.26 15.8622 1731.18 -88.5601 1660.06 -146.276C1588.94 -203.991 1490.03 -176.633 1427.26 -122.048C1364.49 -67.4633 1373.66 68.1415 1452.01 111.185Z" fill="#EFF3F0"/>
<path d="M1741.52 594.966C1839.01 674.082 1839.08 803.918 1775.12 915.084C1711.17 1026.25 1602.61 1128.58 1526.88 1222.3C1451.15 1316.02 1311.17 1340.09 1207.44 1255.91C1103.7 1171.73 1087.54 1021.24 1173.83 935.792C1260.13 850.34 1329.76 721.487 1422.08 628.581C1514.4 535.674 1644.03 515.85 1741.52 594.966Z" fill="#EFF3F0"/>
<path d="M436.132 312.829C513.87 375.915 619.432 361.641 679.596 287.185C739.761 212.729 730.053 89.6682 654.007 43.1994C577.961 -3.26947 465.961 -20.9572 410.543 68.8433C355.125 158.644 358.394 249.743 436.132 312.829Z" fill="#E0436B"/>
<path d="M674.676 881.889C699.333 901.898 732.821 897.362 751.912 873.735C771.004 850.109 767.933 811.067 743.813 796.33C719.692 781.593 684.164 775.989 666.577 804.484C648.99 832.978 650.02 861.88 674.676 881.889Z" fill="#E0436B"/>
<path d="M342.788 80.9207C358.98 94.061 380.973 91.0819 393.51 75.5659C406.048 60.05 404.032 34.4107 388.191 24.7325C372.351 15.0544 349.019 11.3746 337.469 30.0874C325.919 48.8001 326.596 67.7805 342.788 80.9207Z" fill="#E0436B"/>
<path d="M784.916 808.312C775.567 811.818 772.124 821.855 775.752 832.135C779.379 842.415 791.059 846.689 799.55 841.251C808.04 835.813 812.229 827.174 808.714 817.428C805.199 807.682 794.265 804.806 784.916 808.312Z" fill="#E0436B"/>
<path d="M1327.97 156.917C1368.82 190.066 1424.3 182.551 1455.93 143.408C1487.56 104.266 1482.47 39.5849 1442.51 15.1696C1402.55 -9.24571 1343.69 -18.5289 1314.55 28.6783C1285.42 75.8854 1287.12 123.768 1327.97 156.917Z" fill="#7252A4"/>
<path d="M722.71 314.967C738.902 328.107 760.895 325.128 773.432 309.612C785.97 294.096 783.954 268.457 768.113 258.779C752.273 249.1 728.941 245.421 717.391 264.133C705.841 282.846 706.518 301.827 722.71 314.967Z" fill="#7252A4"/>
<path d="M795.108 318.506C802.468 324.479 812.465 323.125 818.164 316.072C823.863 309.02 822.946 297.365 815.746 292.966C808.546 288.567 797.94 286.895 792.69 295.4C787.441 303.906 787.748 312.534 795.108 318.506Z" fill="#7252A4"/>
<path d="M1063.89 1025.84C1090.65 1047.56 1139.47 1020.39 1169.49 990.945C1199.51 961.496 1195.28 908.943 1158.09 884.263C1120.9 859.583 1077.85 862.773 1051.59 895.272C1025.33 927.772 1037.13 1004.12 1063.89 1025.84Z" fill="#7252A4"/>
<path d="M588.119 668.478C647.345 722.833 731.716 710.903 792 647.296C852.285 583.689 840.197 484.17 770.286 443.04C700.374 401.909 623.283 403.372 566.405 464.221C509.526 525.071 528.894 614.123 588.119 668.478Z" fill="#F0C933"/>
<path d="M1470.6 632.796C1493.02 653.371 1524.96 648.856 1547.78 624.778C1570.6 600.701 1566.02 563.029 1539.56 547.459C1513.1 531.889 1483.91 532.443 1462.38 555.477C1440.85 578.51 1448.18 612.22 1470.6 632.796Z" fill="#F0C933"/>
<path d="M775.129 707.05C782.491 713.806 792.978 712.324 800.471 704.417C807.964 696.511 806.461 684.142 797.772 679.029C789.082 673.917 779.5 674.098 772.43 681.662C765.36 689.225 767.767 700.294 775.129 707.05Z" fill="#F0C933"/>
<path d="M1527.57 681.503C1534.94 688.259 1545.42 686.776 1552.92 678.87C1560.41 670.964 1558.91 658.594 1550.22 653.482C1541.53 648.369 1531.94 648.551 1524.88 656.114C1517.81 663.678 1520.21 674.747 1527.57 681.503Z" fill="#F0C933"/>
<path d="M803.022 662.112C806.702 665.49 811.946 664.748 815.692 660.795C819.439 656.842 818.688 650.657 814.343 648.101C809.998 645.545 805.207 645.636 801.672 649.418C798.137 653.199 799.341 658.734 803.022 662.112Z" fill="#F0C933"/>
<path d="M1021.61 449.02C1044.02 469.596 1075.96 465.08 1098.78 441.003C1121.6 416.925 1117.03 379.253 1090.56 363.683C1064.1 348.114 1034.92 348.667 1013.38 371.701C991.854 394.735 999.186 428.445 1021.61 449.02Z" fill="#453264"/>
<path d="M406.721 396.363C414.082 403.119 424.569 401.636 432.063 393.73C439.556 385.824 438.053 373.454 429.363 368.342C420.674 363.229 411.091 363.411 404.022 370.974C396.952 378.538 399.359 389.606 406.721 396.363Z" fill="#453264"/>
<path d="M1439.59 810.888C1446.95 817.644 1457.43 816.161 1464.93 808.255C1472.42 800.349 1470.92 787.979 1462.23 782.867C1453.54 777.754 1443.96 777.936 1436.89 785.499C1429.82 793.063 1432.22 804.131 1439.59 810.888Z" fill="#453264"/>
<path d="M1008.89 475.446C1003.83 484.067 1007.46 494.038 1016.73 499.74C1026.01 505.441 1037.77 501.396 1040.95 491.815C1044.13 482.234 1041.96 472.879 1033.11 467.522C1024.26 462.164 1013.96 466.825 1008.89 475.446Z" fill="#453264"/>
<path d="M1570.11 303.154C1592.52 323.729 1624.46 319.214 1647.28 295.136C1670.1 271.059 1665.53 233.387 1639.06 217.817C1612.6 202.247 1583.42 202.801 1561.88 225.835C1540.35 248.868 1547.69 282.578 1570.11 303.154Z" fill="#0F90D1"/>
<path d="M250.221 1102.83C337.935 1174.01 477.946 1157.54 567.449 1069.71C656.952 981.87 644.528 825.29 533.821 751.861C423.114 678.432 294.907 688.065 216.593 784.981C138.279 881.898 162.507 1031.65 250.221 1102.83Z" fill="#0F90D1"/>
<path d="M1528.21 292.879C1599.33 350.595 1599.37 445.322 1552.7 526.433C1506.03 607.544 1426.83 682.207 1371.57 750.59C1316.31 818.974 1214.19 836.551 1138.52 775.138C1062.84 713.725 1051.06 603.936 1114.02 541.584C1176.99 479.232 1227.79 385.217 1295.15 317.427C1362.51 249.636 1457.09 235.164 1528.21 292.879Z" fill="#0F90D1"/>
<path d="M1171.05 274.907C1201.33 302.699 1244.47 296.6 1275.3 264.077C1306.12 231.554 1299.94 180.669 1264.19 159.638C1228.45 138.608 1189.03 139.355 1159.95 170.468C1130.87 201.581 1140.77 247.114 1171.05 274.907Z" fill="#C4C8D4"/>
<path d="M120.519 825.936C203.504 902.096 321.721 885.382 406.189 796.258C490.658 707.135 473.72 567.693 375.762 510.062C277.804 452.431 169.787 454.48 90.0912 539.739C10.3953 624.999 37.5331 749.775 120.519 825.936Z" fill="#C4C8D4"/>
<path d="M1544 1143.22C1626.98 1219.38 1745.2 1202.66 1829.67 1113.54C1914.13 1024.42 1897.2 884.973 1799.24 827.342C1701.28 769.711 1593.26 771.759 1513.57 857.019C1433.87 942.279 1461.01 1067.06 1544 1143.22Z" fill="#C4C8D4"/>
<path d="M1484.31 193.977C1497.09 200.99 1512.91 201.6 1522.29 189.987C1531.68 178.374 1529.89 161.332 1518.29 151.923C1506.7 142.514 1490.56 146.994 1480.31 155.913C1470.06 164.832 1471.53 186.964 1484.31 193.977Z" fill="#EFF3F0"/>
<path d="M1259.92 50.3183C1267.66 54.5688 1277.25 54.9382 1282.94 47.9001C1288.63 40.862 1287.54 30.5337 1280.51 24.8312C1273.49 19.1286 1263.7 21.8441 1257.49 27.2494C1251.28 32.6547 1252.17 46.0677 1259.92 50.3183Z" fill="#EFF3F0"/>
<path d="M1186.1 -220.379C1257.22 -162.663 1268.19 -58.0976 1210.59 13.1751C1153 84.4478 1076.97 161.517 1029.46 237.333C981.956 313.148 860.532 328.208 796.408 261.88C732.285 195.552 707.688 107.807 771.913 28.3263C836.138 -51.1546 889.935 -117.731 953.044 -195.831C1016.15 -273.931 1114.98 -278.094 1186.1 -220.379Z" fill="#6759AE"/>
</g>
</svg>
